<svg width="335" height="317" fill="none" xmlns="http://www.w3.org/2000/svg"><path opacity=".15" d="M77.045 120.842c21.012-46.964 77.623-70.121 126.444-51.724s71.365 71.382 50.354 118.346c-21.012 46.964-77.623 70.122-126.444 51.725s-71.365-71.383-50.354-118.347Zm160.883 60.625c17.228-38.509-1.257-81.955-41.288-97.04-40.032-15.085-86.451 3.904-103.68 42.412-17.228 38.509 1.257 81.955 41.288 97.04 40.032 15.085 86.451-3.904 103.68-42.412Z" fill="url('#paint0_linear_939_11149')" fill-opacity=".9"/><path opacity=".15" d="M217.258 46.135c64.483 24.3 94.259 94.283 66.507 156.313-27.753 62.03-102.525 92.617-167.008 68.318-64.483-24.299-94.26-94.283-66.507-156.313 27.753-62.03 102.525-92.617 167.008-68.318Zm-91.454 204.41c52.874 19.924 114.184-5.156 136.94-56.018 22.756-50.863-1.659-108.246-54.533-128.17-52.874-19.925-114.184 5.155-136.94 56.018-22.756 50.862 1.66 108.246 54.533 128.17Z" fill="url('#paint1_linear_939_11149')" fill-opacity=".9"/><ellipse opacity=".15" cx="63.191" cy="64.08" rx="63.191" ry="64.08" transform="matrix(.40853 -.91312 .93605 .35273 81.21 193.548)" fill="url('#paint2_linear_939_11149')" fill-opacity=".9"/><defs><linearGradient id="paint0_linear_939_11149" x1="83.98" y1="322.864" x2="149.56" y2="148.832" gradientUnits="userSpaceOnUse"><stop stop-color="#fff" stop-opacity="0"/><stop offset=".498" stop-color="#fff" stop-opacity=".8"/><stop offset="1" stop-color="#fff" stop-opacity="0"/></linearGradient><linearGradient id="paint1_linear_939_11149" x1="41.11" y1="197.046" x2="298.53" y2="102.133" gradientUnits="userSpaceOnUse"><stop stop-color="#fff" stop-opacity="0"/><stop offset=".498" stop-color="#fff" stop-opacity=".8"/><stop offset="1" stop-color="#fff" stop-opacity="0"/></linearGradient><linearGradient id="paint2_linear_939_11149" x1="63.191" y1="0" x2="63.191" y2="128.161" gradientUnits="userSpaceOnUse"><stop stop-color="#fff" stop-opacity="0"/><stop offset=".498" stop-color="#fff" stop-opacity=".8"/><stop offset="1" stop-color="#fff" stop-opacity="0"/></linearGradient></defs></svg>